<svg xmlns="http://www.w3.org/2000/svg" xmlns:xlink="http://www.w3.org/1999/xlink" version="1.1" viewBox="0 0 1986 2833" style="background: #ffffff"><defs><style>@import url(https://fonts.googleapis.com/css?family=Open+Sans:400,700);</style></defs><defs joint-selector="defs"></defs><g joint-selector="layers"  transform="matrix(1,0,0,1,0,0)"><g ></g><g ><g   id="j_2"  transform="translate(20,2795.5)"><g id="v-5"><text  id="v-6" font-size="22px" xml:space="preserve" y="0.8em" font-weight="normal" text-anchor="start" fill="#aaaaaa" pointer-events="none" display="block" font-family="Open Sans"><tspan dy="0"  display="none">Sunday, May 12, 2024 at 11:11 PM Australian Eastern Standard Time</tspan></text></g></g><g   id="j_1"  transform="translate(20,2750.5)"><g id="v-3"><text  id="v-4" font-size="36px" xml:space="preserve" y="0.8em" font-weight="normal" text-anchor="start" fill="#000000" pointer-events="none" display="block" font-family="Open Sans"><tspan dy="0"  display="none">Process of Automatically Verifying Optimization Rules</tspan></text></g></g><g   id="j_3"  transform="translate(1329,200)" style=""><g  id="v-10" style="opacity: 1;"><rect  x="0" y="160" width="400" height="240" rx="70" id="v-12" stroke="#073b6f" stroke-width="2" pointer-events="visiblePainted" fill="#08427b" style="fill: rgb(8, 66, 123); stroke: rgb(7, 59, 111);"></rect><circle  cx="200" cy="88.88888888888889" r="88.88888888888889" id="v-11" stroke="#073b6f" stroke-width="2" pointer-events="visiblePainted" fill="#08427b" style="fill: rgb(8, 66, 123); stroke: rgb(7, 59, 111);"></circle><line  x1="80" y1="266.6666666666667" x2="80" y2="400" id="v-18" stroke="#073b6f" stroke-width="2" style="stroke: rgb(7, 59, 111);"></line><line  x1="320" y1="266.6666666666667" x2="320" y2="400" id="v-19" stroke="#073b6f" stroke-width="2" style="stroke: rgb(7, 59, 111);"></line><text  id="v-13" font-size="46" xml:space="preserve" y="0.8em" font-weight="bold" text-anchor="middle" pointer-events="visible" font-family="Open Sans" fill="#ffffff" transform="matrix(1,0,0,1,200,199.4)" style="fill: rgb(255, 255, 255);"><tspan dy="0" >GraalVM</tspan><tspan dy="1.2em" x="0" >Developer</tspan></text><text  id="v-14" font-size="29" xml:space="preserve" y="0.8em" text-anchor="middle" font-family="Open Sans" fill="#ffffff" transform="matrix(1,0,0,1,200,314.4)" style="fill: rgb(255, 255, 255);"><tspan dy="0" >[Person]</tspan></text><text  id="v-15" font-size="36" xml:space="preserve" display="none" y="0.8em" text-anchor="middle" font-family="Open Sans" fill="#ffffff" transform="matrix(1,0,0,1,200,360.6)" style="fill: rgb(255, 255, 255);"><tspan dy="0" style="fill-opacity: 0; stroke-opacity: 0;" >-</tspan></text><g  id="v-16" font-weight="normal" text-anchor="middle" color="#ffffff" transform="matrix(1,0,0,1,197.5,370.6)" display="none" style="fill: rgb(255, 255, 255);"><g ></g><g ></g><g ></g><g ></g></g><image  id="v-17"></image></g></g><g   id="j_4"  transform="translate(276,2333)" style=""><g  id="v-20" style="opacity: 1;"><rect  id="v-21" rx="20" ry="20" stroke="#0f5eaa" stroke-width="2" pointer-events="visiblePainted" fill="#1168bd" width="450" height="300" style="fill: rgb(17, 104, 189); stroke: rgb(15, 94, 170);"></rect><text  id="v-22" font-size="46" xml:space="preserve" y="0.8em" font-weight="bold" text-anchor="middle" pointer-events="visible" font-family="Open Sans" fill="#ffffff" transform="matrix(1,0,0,1,225,98.1)" style="fill: rgb(255, 255, 255);"><tspan dy="0" >SMT Solvers</tspan></text><text  id="v-23" font-size="29" xml:space="preserve" y="0.8em" text-anchor="middle" font-family="Open Sans" fill="#ffffff" transform="matrix(1,0,0,1,225,155.6)" style="fill: rgb(255, 255, 255);"><tspan dy="0" >[Software System]</tspan></text><text  id="v-24" font-size="36" xml:space="preserve" display="none" y="0.8em" text-anchor="middle" font-family="Open Sans" fill="#ffffff" transform="matrix(1,0,0,1,225,201.9)" style="fill: rgb(255, 255, 255);"><tspan dy="0" style="fill-opacity: 0; stroke-opacity: 0;" >-</tspan></text><g  id="v-25" color="#ffffff" transform="matrix(1,0,0,1,222.5,211.9)" display="none" style="fill: rgb(255, 255, 255);"><g ></g><g ></g><g ></g><g ></g></g><image  id="v-26"></image></g></g><g   id="j_5"  transform="translate(1307,2333)" style=""><g  id="v-30" style="opacity: 1;"><rect  id="v-31" rx="20" ry="20" stroke="#3c7fc0" stroke-width="2" pointer-events="visiblePainted" fill="#438dd5" width="450" height="300" style="fill: rgb(67, 141, 213); stroke: rgb(60, 127, 192);"></rect><text  id="v-32" font-size="46" xml:space="preserve" y="0.8em" font-weight="bold" text-anchor="middle" pointer-events="visible" font-family="Open Sans" fill="#ffffff" transform="matrix(1,0,0,1,225,98.1)" style="fill: rgb(255, 255, 255);"><tspan dy="0" >Isabelle Server</tspan></text><text  id="v-33" font-size="29" xml:space="preserve" y="0.8em" text-anchor="middle" font-family="Open Sans" fill="#ffffff" transform="matrix(1,0,0,1,225,155.6)" style="fill: rgb(255, 255, 255);"><tspan dy="0" >[Container]</tspan></text><text  id="v-34" font-size="36" xml:space="preserve" display="none" y="0.8em" text-anchor="middle" font-family="Open Sans" fill="#ffffff" transform="matrix(1,0,0,1,225,201.9)" style="fill: rgb(255, 255, 255);"><tspan dy="0" style="fill-opacity: 0; stroke-opacity: 0;" >-</tspan></text><g  id="v-35" color="#ffffff" transform="matrix(1,0,0,1,222.5,211.9)" display="none" style="fill: rgb(255, 255, 255);"><g ></g><g ></g><g ></g><g ></g></g><image  id="v-36"></image></g></g><g   id="j_7"  transform="translate(253,870)" style=""><g id="v-50"><rect  id="v-51" width="1521" height="1340" rx="0" ry="0" fill="#ffffff" stroke="#3c7fc0" stroke-width="1" stroke-dasharray="20,20" pointer-events="none"></rect><text  id="v-52" font-size="36px" xml:space="preserve" y="1289" font-weight="normal" fill="#3c7fc0" text-anchor="start" pointer-events="visible" font-family="Open Sans" transform="matrix(1,0,0,1,15,0)"><tspan dy="0" >Veritest Service</tspan></text><text  id="v-53" font-size="29px" xml:space="preserve" y="1325" font-weight="normal" fill="#3c7fc0" text-anchor="start" pointer-events="visible" font-family="Open Sans" transform="matrix(1,0,0,1,15,0)"><tspan dy="0" >[Container]</tspan></text><image  id="v-54" pointer-events="visible"></image></g></g><g   id="j_6"  transform="translate(1304,1795)" style=""><g  id="v-43" style="opacity: 1;"><rect  id="v-44" rx="20" ry="20" stroke="#78a8d8" stroke-width="2" pointer-events="visiblePainted" fill="#85bbf0" width="450" height="300" style="fill: rgb(133, 187, 240); stroke: rgb(120, 168, 216);"></rect><text  id="v-45" font-size="46" xml:space="preserve" y="0.8em" font-weight="bold" text-anchor="middle" pointer-events="visible" font-family="Open Sans" fill="#000000" transform="matrix(1,0,0,1,225,98.1)" style="fill: rgb(0, 0, 0);"><tspan dy="0" >Isabelle Client</tspan></text><text  id="v-46" font-size="29" xml:space="preserve" y="0.8em" text-anchor="middle" font-family="Open Sans" fill="#000000" transform="matrix(1,0,0,1,225,155.6)" style="fill: rgb(0, 0, 0);"><tspan dy="0" >[Component: Subprocess]</tspan></text><text  id="v-47" font-size="36" xml:space="preserve" display="none" y="0.8em" text-anchor="middle" font-family="Open Sans" fill="#000000" transform="matrix(1,0,0,1,225,201.9)" style="fill: rgb(0, 0, 0);"><tspan dy="0" style="fill-opacity: 0; stroke-opacity: 0;" >-</tspan></text><g  id="v-48" color="#000000" transform="matrix(1,0,0,1,222.5,211.9)" display="none" style="fill: rgb(0, 0, 0);"><g ></g><g ></g><g ></g><g ></g></g><image  id="v-49"></image></g></g><g   id="j_8"  transform="translate(1304,890)" style=""><g  id="v-61" style="opacity: 1;"><rect  id="v-62" rx="20" ry="20" stroke="#78a8d8" stroke-width="2" pointer-events="visiblePainted" fill="#85bbf0" width="450" height="300" style="fill: rgb(133, 187, 240); stroke: rgb(120, 168, 216);"></rect><text  id="v-63" font-size="46" xml:space="preserve" y="0.8em" font-weight="bold" text-anchor="middle" pointer-events="visible" font-family="Open Sans" fill="#000000" transform="matrix(1,0,0,1,225,57.5)" style="fill: rgb(0, 0, 0);"><tspan dy="0" >Controller</tspan></text><text  id="v-64" font-size="29" xml:space="preserve" y="0.8em" text-anchor="middle" font-family="Open Sans" fill="#000000" transform="matrix(1,0,0,1,225,115)" style="fill: rgb(0, 0, 0);"><tspan dy="0" >[Component: Spring Boot</tspan><tspan dy="1.2em" x="0" >REST Controller]</tspan></text><text  id="v-65" font-size="36" xml:space="preserve" y="0.8em" text-anchor="middle" font-family="Open Sans" fill="#000000" transform="matrix(1,0,0,1,225,197.5)" style="fill: rgb(0, 0, 0);"><tspan dy="0" >Handle User Requests</tspan></text><g  id="v-66" color="#000000" transform="matrix(1,0,0,1,222.5,252.5)" display="none" style="fill: rgb(0, 0, 0);"><g ></g><g ></g><g ></g><g ></g></g><image  id="v-67"></image></g></g><g   id="j_9"  transform="translate(273,890)" style=""><g  id="v-77" style="opacity: 1;"><rect  id="v-78" rx="20" ry="20" stroke="#78a8d8" stroke-width="2" pointer-events="visiblePainted" fill="#85bbf0" width="450" height="300" style="fill: rgb(133, 187, 240); stroke: rgb(120, 168, 216);"></rect><text  id="v-79" font-size="46" xml:space="preserve" y="0.8em" font-weight="bold" text-anchor="middle" pointer-events="visible" font-family="Open Sans" fill="#000000" transform="matrix(1,0,0,1,225,75.6)" style="fill: rgb(0, 0, 0);"><tspan dy="0" >Isabelle Service</tspan></text><text  id="v-80" font-size="29" xml:space="preserve" y="0.8em" text-anchor="middle" font-family="Open Sans" fill="#000000" transform="matrix(1,0,0,1,225,133.1)" style="fill: rgb(0, 0, 0);"><tspan dy="0" >[Component: Spring Bean]</tspan></text><text  id="v-81" font-size="36" xml:space="preserve" y="0.8em" text-anchor="middle" font-family="Open Sans" fill="#000000" transform="matrix(1,0,0,1,225,179.4)" style="fill: rgb(0, 0, 0);"><tspan dy="0" >Facade for Isabelle</tspan></text><g  id="v-82" color="#000000" transform="matrix(1,0,0,1,222.5,234.4)" display="none" style="fill: rgb(0, 0, 0);"><g ></g><g ></g><g ></g><g ></g></g><image  id="v-83"></image></g></g><g   id="j_10"  transform="translate(273,1795)" style=""><g  id="v-93" style="opacity: 1;"><rect  id="v-94" rx="20" ry="20" stroke="#78a8d8" stroke-width="2" pointer-events="visiblePainted" fill="#85bbf0" width="450" height="300" style="fill: rgb(133, 187, 240); stroke: rgb(120, 168, 216);"></rect><text  id="v-95" font-size="46" xml:space="preserve" y="0.8em" font-weight="bold" text-anchor="middle" pointer-events="visible" font-family="Open Sans" fill="#000000" transform="matrix(1,0,0,1,225,53.1)" style="fill: rgb(0, 0, 0);"><tspan dy="0" >Isabelle Process</tspan></text><text  id="v-96" font-size="29" xml:space="preserve" y="0.8em" text-anchor="middle" font-family="Open Sans" fill="#000000" transform="matrix(1,0,0,1,225,110.6)" style="fill: rgb(0, 0, 0);"><tspan dy="0" >[Component: Spring Bean]</tspan></text><text  id="v-97" font-size="36" xml:space="preserve" y="0.8em" text-anchor="middle" font-family="Open Sans" fill="#000000" transform="matrix(1,0,0,1,225,156.9)" style="fill: rgb(0, 0, 0);"><tspan dy="0" >Proxy for Isabelle Client</tspan><tspan dy="1.2em" x="0" >Subprocess</tspan></text><g  id="v-98" color="#000000" transform="matrix(1,0,0,1,222.5,256.9)" display="none" style="fill: rgb(0, 0, 0);"><g ></g><g ></g><g ></g><g ></g></g><image  id="v-99"></image></g></g><g   id="j_11" ><path  stroke="#707070" d="M 1406 600 L 1322 737 C 1318.6666666666665 743 1319 748.6666666666666 1323 754 L 1421 890" id="v-113" stroke-width="2" stroke-dasharray="30 30" fill="none"></path><path  fill="black" stroke="black" d="M 0 0 0 0" transform="matrix(-0.5224607567457742,0.8526633319550179,-0.8526633319550179,-0.5224607567457742,1406.4599609375,600)"></path><path  fill="#707070" stroke="#707070" d="M 20 0 L 0 10 L 20 20 z" id="v-115" transform="matrix(-0.5848981007857682,-0.8111067819326881,0.8111067819326881,-0.5848981007857682,1412.728879985406,895.8489648428096)"></path><path  d="M 1406 600 L 1322 737 C 1318.6666666666665 743 1319 748.6666666666666 1323 754 L 1421 890" id="v-114" fill="none" style="cursor: default;"></path><g ><g id="v-107"  label-idx="0" cursor="move" transform="matrix(1,0,0,1,1320.3753662109375,749.0645751953125)" style="cursor: default;"><rect joint-selector="rect" id="v-110" fill="#ffffff" rx="3" ry="3" pointer-events="none" width="349.6866455078125" height="92.06451416015625" transform="matrix(1,0,0,1,-174.8,-46)"></rect><text joint-selector="text" id="v-109" font-size="36px" xml:space="preserve" y="0.8em" fill="#707070" text-anchor="middle" pointer-events="none" font-family="Open Sans" font-weight="normal" transform="matrix(1,0,0,1,0,-36.3)"><tspan dy="0" >1: Send Optimization</tspan><tspan dy="1.2em" x="0" >Rules</tspan></text></g><g id="v-108"  label-idx="1" cursor="move" transform="matrix(1,0,0,1,1310.3753662109375,812.0645751953125)" style="cursor: default;"><rect joint-selector="rect" id="v-112" fill="#ffffff" rx="3" ry="3"  width="0" height="0" transform="matrix(1,0,0,1,0,0)" display="none"></rect><text joint-selector="text" id="v-111" fill="#000000" font-size="14" text-anchor="middle" pointer-events="none"></text></g></g><g  display="none"><g  transform="translate(1317, 746)" id="v-378"><circle  idx="0" r="10"></circle><path  idx="0" d="M16,5.333c-7.732,0-14,4.701-14,10.5c0,1.982,0.741,3.833,2.016,5.414L2,25.667l5.613-1.441c2.339,1.317,5.237,2.107,8.387,2.107c7.732,0,14-4.701,14-10.5C30,10.034,23.732,5.333,16,5.333z" transform="translate(5, -33)"></path><path  idx="0" transform="scale(.8) translate(9.5, -37)" d="M24.778,21.419 19.276,15.917 24.777,10.415 21.949,7.585 16.447,13.087 10.945,7.585 8.117,10.415 13.618,15.917 8.116,21.419 10.946,24.248 16.447,18.746 21.948,24.248z"><title>Remove vertex.</title></path></g></g><g  id="v-117" display="none"><g  id="v-105"><path  end="source" d="M 26 0 L 0 13 L 26 26 z"></path></g><g  id="v-106"><path  end="target" d="M 26 0 L 0 13 L 26 26 z"></path></g></g><g  id="v-116" display="none"><g  id="v-103" transform="translate(1385.0916812527548, 634.1004722425306) "><g  event="remove"><circle r="11"></circle><path transform="scale(.8) translate(-16, -16)" d="M24.778,21.419 19.276,15.917 24.777,10.415 21.949,7.585 16.447,13.087 10.945,7.585 8.117,10.415 13.618,15.917 8.116,21.419 10.946,24.248 16.447,18.746 21.948,24.248z"></path><title>Remove link.</title></g><g  event="link:options"><circle r="11" transform="translate(25)"></circle><path fill="white" transform="scale(.55) translate(29, -16)" d="M31.229,17.736c0.064-0.571,0.104-1.148,0.104-1.736s-0.04-1.166-0.104-1.737l-4.377-1.557c-0.218-0.716-0.504-1.401-0.851-2.05l1.993-4.192c-0.725-0.91-1.549-1.734-2.458-2.459l-4.193,1.994c-0.647-0.347-1.334-0.632-2.049-0.849l-1.558-4.378C17.165,0.708,16.588,0.667,16,0.667s-1.166,0.041-1.737,0.105L12.707,5.15c-0.716,0.217-1.401,0.502-2.05,0.849L6.464,4.005C5.554,4.73,4.73,5.554,4.005,6.464l1.994,4.192c-0.347,0.648-0.632,1.334-0.849,2.05l-4.378,1.557C0.708,14.834,0.667,15.412,0.667,16s0.041,1.165,0.105,1.736l4.378,1.558c0.217,0.715,0.502,1.401,0.849,2.049l-1.994,4.193c0.725,0.909,1.549,1.733,2.459,2.458l4.192-1.993c0.648,0.347,1.334,0.633,2.05,0.851l1.557,4.377c0.571,0.064,1.148,0.104,1.737,0.104c0.588,0,1.165-0.04,1.736-0.104l1.558-4.377c0.715-0.218,1.399-0.504,2.049-0.851l4.193,1.993c0.909-0.725,1.733-1.549,2.458-2.458l-1.993-4.193c0.347-0.647,0.633-1.334,0.851-2.049L31.229,17.736zM16,20.871c-2.69,0-4.872-2.182-4.872-4.871c0-2.69,2.182-4.872,4.872-4.872c2.689,0,4.871,2.182,4.871,4.872C20.871,18.689,18.689,20.871,16,20.871z"></path><title>Link options.</title></g></g></g></g><g   id="j_12" ><path  stroke="#707070" d="M 1304 984 L 1035 917 C 1028.3333333333333 915.6666666666666 1021.6666666666665 915.6666666666666 1015 917 L 723 987" id="v-128" stroke-width="2" stroke-dasharray="30 30" fill="none"></path><path  fill="black" stroke="black" d="M 0 0 0 0" transform="matrix(-0.9705910449667648,-0.24073434202523633,0.24073434202523633,-0.9705910449667648,1304,984.2000122070312)"></path><path  fill="#707070" stroke="#707070" d="M 20 0 L 0 10 L 20 20 z" id="v-130" transform="matrix(0.9730052629263458,-0.23078292466651987,0.23078292466651987,0.9730052629263458,720.6921596279776,976.8999201720892)"></path><path  d="M 1304 984 L 1035 917 C 1028.3333333333333 915.6666666666666 1021.6666666666665 915.6666666666666 1015 917 L 723 987" id="v-129" fill="none" style="cursor: default;"></path><g ><g id="v-122"  label-idx="0" cursor="move" transform="matrix(1,0,0,1,1013.578125,917.3408813476562)" style="cursor: default;"><rect joint-selector="rect" id="v-125" fill="#ffffff" rx="3" ry="3" pointer-events="none" width="130.14340209960938" height="48.8645076751709" transform="matrix(1,0,0,1,-65.1,-24.4)"></rect><text joint-selector="text" id="v-124" font-size="36px" xml:space="preserve" y="0.8em" fill="#707070" text-anchor="middle" pointer-events="none" font-family="Open Sans" font-weight="normal" transform="matrix(1,0,0,1,0,-14.7)"><tspan dy="0" >2: Rules</tspan></text></g><g id="v-123"  label-idx="1" cursor="move" transform="matrix(1,0,0,1,1003.578125,957.8408813476562)" style="cursor: default;"><rect joint-selector="rect" id="v-127" fill="#ffffff" rx="3" ry="3"  width="0" height="0" transform="matrix(1,0,0,1,0,0)" display="none"></rect><text joint-selector="text" id="v-126" fill="#000000" font-size="14" text-anchor="middle" pointer-events="none"></text></g></g><g  display="none"><g  transform="translate(1025, 915)" id="v-1193"><circle  idx="0" r="10"></circle><path  idx="0" d="M16,5.333c-7.732,0-14,4.701-14,10.5c0,1.982,0.741,3.833,2.016,5.414L2,25.667l5.613-1.441c2.339,1.317,5.237,2.107,8.387,2.107c7.732,0,14-4.701,14-10.5C30,10.034,23.732,5.333,16,5.333z" transform="translate(5, -33)"></path><path  idx="0" transform="scale(.8) translate(9.5, -37)" d="M24.778,21.419 19.276,15.917 24.777,10.415 21.949,7.585 16.447,13.087 10.945,7.585 8.117,10.415 13.618,15.917 8.116,21.419 10.946,24.248 16.447,18.746 21.948,24.248z"><title>Remove vertex.</title></path></g></g><g  id="v-132" display="none"><g  id="v-120"><path  end="source" d="M 26 0 L 0 13 L 26 26 z"></path></g><g  id="v-121"><path  end="target" d="M 26 0 L 0 13 L 26 26 z"></path></g></g><g  id="v-131" display="none"><g  id="v-118" transform="translate(1265.185827163105, 974.3325294421116) "><g  event="remove"><circle r="11"></circle><path transform="scale(.8) translate(-16, -16)" d="M24.778,21.419 19.276,15.917 24.777,10.415 21.949,7.585 16.447,13.087 10.945,7.585 8.117,10.415 13.618,15.917 8.116,21.419 10.946,24.248 16.447,18.746 21.948,24.248z"></path><title>Remove link.</title></g><g  event="link:options"><circle r="11" transform="translate(25)"></circle><path fill="white" transform="scale(.55) translate(29, -16)" d="M31.229,17.736c0.064-0.571,0.104-1.148,0.104-1.736s-0.04-1.166-0.104-1.737l-4.377-1.557c-0.218-0.716-0.504-1.401-0.851-2.05l1.993-4.192c-0.725-0.91-1.549-1.734-2.458-2.459l-4.193,1.994c-0.647-0.347-1.334-0.632-2.049-0.849l-1.558-4.378C17.165,0.708,16.588,0.667,16,0.667s-1.166,0.041-1.737,0.105L12.707,5.15c-0.716,0.217-1.401,0.502-2.05,0.849L6.464,4.005C5.554,4.73,4.73,5.554,4.005,6.464l1.994,4.192c-0.347,0.648-0.632,1.334-0.849,2.05l-4.378,1.557C0.708,14.834,0.667,15.412,0.667,16s0.041,1.165,0.105,1.736l4.378,1.558c0.217,0.715,0.502,1.401,0.849,2.049l-1.994,4.193c0.725,0.909,1.549,1.733,2.459,2.458l4.192-1.993c0.648,0.347,1.334,0.633,2.05,0.851l1.557,4.377c0.571,0.064,1.148,0.104,1.737,0.104c0.588,0,1.165-0.04,1.736-0.104l1.558-4.377c0.715-0.218,1.399-0.504,2.049-0.851l4.193,1.993c0.909-0.725,1.733-1.549,2.458-2.458l-1.993-4.193c0.347-0.647,0.633-1.334,0.851-2.049L31.229,17.736zM16,20.871c-2.69,0-4.872-2.182-4.872-4.871c0-2.69,2.182-4.872,4.872-4.872c2.689,0,4.871,2.182,4.871,4.872C20.871,18.689,18.689,20.871,16,20.871z"></path><title>Link options.</title></g></g></g></g><g   id="j_13" ><path  stroke="#707070" d="M 439 1190 L 324 1486 C 321.3333333333333 1492 321.3333333333333 1498 324 1504 L 439 1795" id="v-146" stroke-width="2" stroke-dasharray="30 30" fill="none"></path><path  fill="black" stroke="black" d="M 0 0 0 0" transform="matrix(-0.36432566490938234,0.9312716090853068,-0.9312716090853068,-0.36432566490938234,439.32000732421875,1190)"></path><path  fill="#707070" stroke="#707070" d="M 20 0 L 0 10 L 20 20 z" id="v-148" transform="matrix(-0.3678341820285357,-0.929891399321124,0.929891399321124,-0.3678341820285357,429.37109652824597,1798.6783056181841)"></path><path  d="M 439 1190 L 324 1486 C 321.3333333333333 1492 321.3333333333333 1498 324 1504 L 439 1795" id="v-147" fill="none" style="cursor: default;"></path><g ><g id="v-140"  label-idx="0" cursor="move" transform="matrix(1,0,0,1,322.1329345703125,1492.6796875)" style="cursor: default;"><rect joint-selector="rect" id="v-143" fill="#ffffff" rx="3" ry="3" pointer-events="none" width="323.7273864746094" height="48.8645076751709" transform="matrix(1,0,0,1,-161.9,-24.4)"></rect><text joint-selector="text" id="v-142" font-size="36px" xml:space="preserve" y="0.8em" fill="#707070" text-anchor="middle" pointer-events="none" font-family="Open Sans" font-weight="normal" transform="matrix(1,0,0,1,0,-14.7)"><tspan dy="0" >3: Try to Verify Rule</tspan></text></g><g id="v-141"  label-idx="1" cursor="move" transform="matrix(1,0,0,1,312.1329345703125,1533.1796875)" style="cursor: default;"><rect joint-selector="rect" id="v-145" fill="#ffffff" rx="3" ry="3"  width="0" height="0" transform="matrix(1,0,0,1,0,0)" display="none"></rect><text joint-selector="text" id="v-144" fill="#000000" font-size="14" text-anchor="middle" pointer-events="none"></text></g></g><g  display="none"><g  transform="translate(320, 1495)" id="v-452"><circle  idx="0" r="10"></circle><path  idx="0" d="M16,5.333c-7.732,0-14,4.701-14,10.5c0,1.982,0.741,3.833,2.016,5.414L2,25.667l5.613-1.441c2.339,1.317,5.237,2.107,8.387,2.107c7.732,0,14-4.701,14-10.5C30,10.034,23.732,5.333,16,5.333z" transform="translate(5, -33)"></path><path  idx="0" transform="scale(.8) translate(9.5, -37)" d="M24.778,21.419 19.276,15.917 24.777,10.415 21.949,7.585 16.447,13.087 10.945,7.585 8.117,10.415 13.618,15.917 8.116,21.419 10.946,24.248 16.447,18.746 21.948,24.248z"><title>Remove vertex.</title></path></g></g><g  id="v-150" display="none"><g  id="v-138"><path  end="source" d="M 26 0 L 0 13 L 26 26 z"></path></g><g  id="v-139"><path  end="target" d="M 26 0 L 0 13 L 26 26 z"></path></g></g><g  id="v-149" display="none"><g  id="v-136" transform="translate(424.51430756742917, 1227.2849126960082) "><g  event="remove"><circle r="11"></circle><path transform="scale(.8) translate(-16, -16)" d="M24.778,21.419 19.276,15.917 24.777,10.415 21.949,7.585 16.447,13.087 10.945,7.585 8.117,10.415 13.618,15.917 8.116,21.419 10.946,24.248 16.447,18.746 21.948,24.248z"></path><title>Remove link.</title></g><g  event="link:options"><circle r="11" transform="translate(25)"></circle><path fill="white" transform="scale(.55) translate(29, -16)" d="M31.229,17.736c0.064-0.571,0.104-1.148,0.104-1.736s-0.04-1.166-0.104-1.737l-4.377-1.557c-0.218-0.716-0.504-1.401-0.851-2.05l1.993-4.192c-0.725-0.91-1.549-1.734-2.458-2.459l-4.193,1.994c-0.647-0.347-1.334-0.632-2.049-0.849l-1.558-4.378C17.165,0.708,16.588,0.667,16,0.667s-1.166,0.041-1.737,0.105L12.707,5.15c-0.716,0.217-1.401,0.502-2.05,0.849L6.464,4.005C5.554,4.73,4.73,5.554,4.005,6.464l1.994,4.192c-0.347,0.648-0.632,1.334-0.849,2.05l-4.378,1.557C0.708,14.834,0.667,15.412,0.667,16s0.041,1.165,0.105,1.736l4.378,1.558c0.217,0.715,0.502,1.401,0.849,2.049l-1.994,4.193c0.725,0.909,1.549,1.733,2.459,2.458l4.192-1.993c0.648,0.347,1.334,0.633,2.05,0.851l1.557,4.377c0.571,0.064,1.148,0.104,1.737,0.104c0.588,0,1.165-0.04,1.736-0.104l1.558-4.377c0.715-0.218,1.399-0.504,2.049-0.851l4.193,1.993c0.909-0.725,1.733-1.549,2.458-2.458l-1.993-4.193c0.347-0.647,0.633-1.334,0.851-2.049L31.229,17.736zM16,20.871c-2.69,0-4.872-2.182-4.872-4.871c0-2.69,2.182-4.872,4.872-4.872c2.689,0,4.871,2.182,4.871,4.872C20.871,18.689,18.689,20.871,16,20.871z"></path><title>Link options.</title></g></g></g></g><g   id="j_14" ><path  stroke="#707070" d="M 723 1932 L 1005 1916 C 1011.6666666666666 1915.333333333333 1018.3333333333333 1915.333333333333 1025 1916 L 1304 1932" id="v-164" stroke-width="2" stroke-dasharray="30 30" fill="none"></path><path  fill="black" stroke="black" d="M 0 0 0 0" transform="matrix(0.9983214388229905,-0.05791636026541985,0.05791636026541985,0.9983214388229905,723,1931.93994140625)"></path><path  fill="#707070" stroke="#707070" d="M 20 0 L 0 10 L 20 20 z" id="v-166" transform="matrix(-0.9983005983801889,-0.05827448218351453,0.05827448218351453,-0.9983005983801889,1303.4172289354042,1941.8529822509495)"></path><path  d="M 723 1932 L 1005 1916 C 1011.6666666666666 1915.333333333333 1018.3333333333333 1915.333333333333 1025 1916 L 1304 1932" id="v-165" fill="none" style="cursor: default;"></path><g ><g id="v-158"  label-idx="0" cursor="move" transform="matrix(1,0,0,1,1013.515625,1915.510986328125)" style="cursor: default;"><rect joint-selector="rect" id="v-161" fill="#ffffff" rx="3" ry="3" pointer-events="none" width="342.19036865234375" height="92.06451416015625" transform="matrix(1,0,0,1,-171.1,-46)"></rect><text joint-selector="text" id="v-160" font-size="36px" xml:space="preserve" y="0.8em" fill="#707070" text-anchor="middle" pointer-events="none" font-family="Open Sans" font-weight="normal" transform="matrix(1,0,0,1,0,-36.3)"><tspan dy="0" >4: Sends Commands</tspan><tspan dy="1.2em" x="0" >and Theory</tspan></text></g><g id="v-159"  label-idx="1" cursor="move" transform="matrix(1,0,0,1,1003.515625,1978.510986328125)" style="cursor: default;"><rect joint-selector="rect" id="v-163" fill="#ffffff" rx="3" ry="3"  width="0" height="0" transform="matrix(1,0,0,1,0,0)" display="none"></rect><text joint-selector="text" id="v-162" fill="#000000" font-size="14" text-anchor="middle" pointer-events="none"></text></g></g><g  display="none"><g  transform="translate(1015, 1915)" id="v-418"><circle  idx="0" r="10"></circle><path  idx="0" d="M16,5.333c-7.732,0-14,4.701-14,10.5c0,1.982,0.741,3.833,2.016,5.414L2,25.667l5.613-1.441c2.339,1.317,5.237,2.107,8.387,2.107c7.732,0,14-4.701,14-10.5C30,10.034,23.732,5.333,16,5.333z" transform="translate(5, -33)"></path><path  idx="0" transform="scale(.8) translate(9.5, -37)" d="M24.778,21.419 19.276,15.917 24.777,10.415 21.949,7.585 16.447,13.087 10.945,7.585 8.117,10.415 13.618,15.917 8.116,21.419 10.946,24.248 16.447,18.746 21.948,24.248z"><title>Remove vertex.</title></path></g></g><g  id="v-168" display="none"><g  id="v-156"><path  end="source" d="M 26 0 L 0 13 L 26 26 z"></path></g><g  id="v-157"><path  end="target" d="M 26 0 L 0 13 L 26 26 z"></path></g></g><g  id="v-167" display="none"><g  id="v-154" transform="translate(762.9357719491339, 1929.7341405986308) "><g  event="remove"><circle r="11"></circle><path transform="scale(.8) translate(-16, -16)" d="M24.778,21.419 19.276,15.917 24.777,10.415 21.949,7.585 16.447,13.087 10.945,7.585 8.117,10.415 13.618,15.917 8.116,21.419 10.946,24.248 16.447,18.746 21.948,24.248z"></path><title>Remove link.</title></g><g  event="link:options"><circle r="11" transform="translate(25)"></circle><path fill="white" transform="scale(.55) translate(29, -16)" d="M31.229,17.736c0.064-0.571,0.104-1.148,0.104-1.736s-0.04-1.166-0.104-1.737l-4.377-1.557c-0.218-0.716-0.504-1.401-0.851-2.05l1.993-4.192c-0.725-0.91-1.549-1.734-2.458-2.459l-4.193,1.994c-0.647-0.347-1.334-0.632-2.049-0.849l-1.558-4.378C17.165,0.708,16.588,0.667,16,0.667s-1.166,0.041-1.737,0.105L12.707,5.15c-0.716,0.217-1.401,0.502-2.05,0.849L6.464,4.005C5.554,4.73,4.73,5.554,4.005,6.464l1.994,4.192c-0.347,0.648-0.632,1.334-0.849,2.05l-4.378,1.557C0.708,14.834,0.667,15.412,0.667,16s0.041,1.165,0.105,1.736l4.378,1.558c0.217,0.715,0.502,1.401,0.849,2.049l-1.994,4.193c0.725,0.909,1.549,1.733,2.459,2.458l4.192-1.993c0.648,0.347,1.334,0.633,2.05,0.851l1.557,4.377c0.571,0.064,1.148,0.104,1.737,0.104c0.588,0,1.165-0.04,1.736-0.104l1.558-4.377c0.715-0.218,1.399-0.504,2.049-0.851l4.193,1.993c0.909-0.725,1.733-1.549,2.458-2.458l-1.993-4.193c0.347-0.647,0.633-1.334,0.851-2.049L31.229,17.736zM16,20.871c-2.69,0-4.872-2.182-4.872-4.871c0-2.69,2.182-4.872,4.872-4.872c2.689,0,4.871,2.182,4.871,4.872C20.871,18.689,18.689,20.871,16,20.871z"></path><title>Link options.</title></g></g></g></g><g   id="j_15" ><path  stroke="#707070" d="M 1530 2095 L 1531 2333" id="v-181" stroke-width="2" stroke-dasharray="30 30" fill="none"></path><path  fill="black" stroke="black" d="M 0 0 0 0" transform="matrix(0.005546137694881334,0.9999846200600634,-0.9999846200600634,0.005546137694881334,1529.8399658203125,2095)"></path><path  fill="#707070" stroke="#707070" d="M 20 0 L 0 10 L 20 20 z" id="v-183" transform="matrix(-0.0055462708508882495,-0.9999846193215417,0.9999846193215417,-0.0055462708508882495,1521.1601087027934,2333.0555530423494)"></path><path  d="M 1530 2095 L 1531 2333" id="v-182" fill="none" style="cursor: default;"></path><g ><g id="v-175"  label-idx="0" cursor="move" transform="matrix(1,0,0,1,1530.5,2214)" style="cursor: default;"><rect joint-selector="rect" id="v-178" fill="#ffffff" rx="3" ry="3" pointer-events="none" width="296.25653076171875" height="48.8645076751709" transform="matrix(1,0,0,1,-147.5,-24.4)"></rect><text joint-selector="text" id="v-177" font-size="36px" xml:space="preserve" y="0.8em" fill="#707070" text-anchor="middle" pointer-events="none" font-family="Open Sans" font-weight="normal" transform="matrix(1,0,0,1,0,-14.7)"><tspan dy="0" >5: Process Theory</tspan></text></g><g id="v-176"  label-idx="1" cursor="move" transform="matrix(1,0,0,1,1520.5,2254.5)" style="cursor: default;"><rect joint-selector="rect" id="v-180" fill="#ffffff" rx="3" ry="3"  width="0" height="0" transform="matrix(1,0,0,1,0,0)" display="none"></rect><text joint-selector="text" id="v-179" fill="#000000" font-size="14" text-anchor="middle" pointer-events="none"></text></g></g><g  display="none"></g><g  id="v-185" display="none"><g  id="v-173"><path  end="source" d="M 26 0 L 0 13 L 26 26 z"></path></g><g  id="v-174"><path  end="target" d="M 26 0 L 0 13 L 26 26 z"></path></g></g><g  id="v-184" display="none"><g  id="v-172" transform="translate(1530.1680657433708, 2134.9996469222656) "><g  event="remove"><circle r="11"></circle><path transform="scale(.8) translate(-16, -16)" d="M24.778,21.419 19.276,15.917 24.777,10.415 21.949,7.585 16.447,13.087 10.945,7.585 8.117,10.415 13.618,15.917 8.116,21.419 10.946,24.248 16.447,18.746 21.948,24.248z"></path><title>Remove link.</title></g><g  event="link:options"><circle r="11" transform="translate(25)"></circle><path fill="white" transform="scale(.55) translate(29, -16)" d="M31.229,17.736c0.064-0.571,0.104-1.148,0.104-1.736s-0.04-1.166-0.104-1.737l-4.377-1.557c-0.218-0.716-0.504-1.401-0.851-2.05l1.993-4.192c-0.725-0.91-1.549-1.734-2.458-2.459l-4.193,1.994c-0.647-0.347-1.334-0.632-2.049-0.849l-1.558-4.378C17.165,0.708,16.588,0.667,16,0.667s-1.166,0.041-1.737,0.105L12.707,5.15c-0.716,0.217-1.401,0.502-2.05,0.849L6.464,4.005C5.554,4.73,4.73,5.554,4.005,6.464l1.994,4.192c-0.347,0.648-0.632,1.334-0.849,2.05l-4.378,1.557C0.708,14.834,0.667,15.412,0.667,16s0.041,1.165,0.105,1.736l4.378,1.558c0.217,0.715,0.502,1.401,0.849,2.049l-1.994,4.193c0.725,0.909,1.549,1.733,2.459,2.458l4.192-1.993c0.648,0.347,1.334,0.633,2.05,0.851l1.557,4.377c0.571,0.064,1.148,0.104,1.737,0.104c0.588,0,1.165-0.04,1.736-0.104l1.558-4.377c0.715-0.218,1.399-0.504,2.049-0.851l4.193,1.993c0.909-0.725,1.733-1.549,2.458-2.458l-1.993-4.193c0.347-0.647,0.633-1.334,0.851-2.049L31.229,17.736zM16,20.871c-2.69,0-4.872-2.182-4.872-4.871c0-2.69,2.182-4.872,4.872-4.872c2.689,0,4.871,2.182,4.871,4.872C20.871,18.689,18.689,20.871,16,20.871z"></path><title>Link options.</title></g></g></g></g><g   id="j_16" ><path  stroke="#707070" d="M 1307 2483 L 726 2483" id="v-198" stroke-width="2" stroke-dasharray="30 30" fill="none"></path><path  fill="black" stroke="black" d="M 0 0 0 0" transform="matrix(-1,1.2246467991473532e-16,-1.2246467991473532e-16,-1,1307,2483)"></path><path  fill="#707070" stroke="#707070" d="M 20 0 L 0 10 L 20 20 z" id="v-200" transform="matrix(1,0,0,1,726,2473)"></path><path  d="M 1307 2483 L 726 2483" id="v-199" fill="none" style="cursor: default;"></path><g ><g id="v-192"  label-idx="0" cursor="move" transform="matrix(1,0,0,1,1016.5,2483)" style="cursor: default;"><rect joint-selector="rect" id="v-195" fill="#ffffff" rx="3" ry="3" pointer-events="none" width="325.8559265136719" height="48.8645076751709" transform="matrix(1,0,0,1,-162.9,-24.4)"></rect><text joint-selector="text" id="v-194" font-size="36px" xml:space="preserve" y="0.8em" fill="#707070" text-anchor="middle" pointer-events="none" font-family="Open Sans" font-weight="normal" transform="matrix(1,0,0,1,0,-14.7)"><tspan dy="0" >6: Automated Tools</tspan></text></g><g id="v-193"  label-idx="1" cursor="move" transform="matrix(1,0,0,1,1006.5,2523.5)" style="cursor: default;"><rect joint-selector="rect" id="v-197" fill="#ffffff" rx="3" ry="3"  width="0" height="0" transform="matrix(1,0,0,1,0,0)" display="none"></rect><text joint-selector="text" id="v-196" fill="#000000" font-size="14" text-anchor="middle" pointer-events="none"></text></g></g><g  display="none"></g><g  id="v-202" display="none"><g  id="v-190"><path  end="source" d="M 26 0 L 0 13 L 26 26 z"></path></g><g  id="v-191"><path  end="target" d="M 26 0 L 0 13 L 26 26 z"></path></g></g><g  id="v-201" display="none"><g  id="v-189" transform="translate(1267, 2483) "><g  event="remove"><circle r="11"></circle><path transform="scale(.8) translate(-16, -16)" d="M24.778,21.419 19.276,15.917 24.777,10.415 21.949,7.585 16.447,13.087 10.945,7.585 8.117,10.415 13.618,15.917 8.116,21.419 10.946,24.248 16.447,18.746 21.948,24.248z"></path><title>Remove link.</title></g><g  event="link:options"><circle r="11" transform="translate(25)"></circle><path fill="white" transform="scale(.55) translate(29, -16)" d="M31.229,17.736c0.064-0.571,0.104-1.148,0.104-1.736s-0.04-1.166-0.104-1.737l-4.377-1.557c-0.218-0.716-0.504-1.401-0.851-2.05l1.993-4.192c-0.725-0.91-1.549-1.734-2.458-2.459l-4.193,1.994c-0.647-0.347-1.334-0.632-2.049-0.849l-1.558-4.378C17.165,0.708,16.588,0.667,16,0.667s-1.166,0.041-1.737,0.105L12.707,5.15c-0.716,0.217-1.401,0.502-2.05,0.849L6.464,4.005C5.554,4.73,4.73,5.554,4.005,6.464l1.994,4.192c-0.347,0.648-0.632,1.334-0.849,2.05l-4.378,1.557C0.708,14.834,0.667,15.412,0.667,16s0.041,1.165,0.105,1.736l4.378,1.558c0.217,0.715,0.502,1.401,0.849,2.049l-1.994,4.193c0.725,0.909,1.549,1.733,2.459,2.458l4.192-1.993c0.648,0.347,1.334,0.633,2.05,0.851l1.557,4.377c0.571,0.064,1.148,0.104,1.737,0.104c0.588,0,1.165-0.04,1.736-0.104l1.558-4.377c0.715-0.218,1.399-0.504,2.049-0.851l4.193,1.993c0.909-0.725,1.733-1.549,2.458-2.458l-1.993-4.193c0.347-0.647,0.633-1.334,0.851-2.049L31.229,17.736zM16,20.871c-2.69,0-4.872-2.182-4.872-4.871c0-2.69,2.182-4.872,4.872-4.872c2.689,0,4.871,2.182,4.871,4.872C20.871,18.689,18.689,20.871,16,20.871z"></path><title>Link options.</title></g></g></g></g><g   id="j_17" ><path  stroke="#707070" d="M 1304 1997 L 1020 2063 C 1013.3333333333333 2064.333333333333 1006.6666666666665 2064.333333333333 1000 2063 L 723 1998" id="v-213" stroke-width="2" stroke-dasharray="30 30" fill="none"></path><path  fill="black" stroke="black" d="M 0 0 0 0" transform="matrix(-0.9742939257820833,0.225280594335456,-0.225280594335456,-0.9742939257820833,1304,1997.02001953125)"></path><path  fill="#707070" stroke="#707070" d="M 20 0 L 0 10 L 20 20 z" id="v-215" transform="matrix(0.9736130129473767,0.22820539217891264,-0.22820539217891264,0.9736130129473767,725.2820688118466,1987.9939009096747)"></path><path  d="M 1304 1997 L 1020 2063 C 1013.3333333333333 2064.333333333333 1006.6666666666665 2064.333333333333 1000 2063 L 723 1998" id="v-214" fill="none" style="cursor: default;"></path><g ><g id="v-207"  label-idx="0" cursor="move" transform="matrix(1,0,0,1,1013.515625,2063.87646484375)" style="cursor: default;"><rect joint-selector="rect" id="v-210" fill="#ffffff" rx="3" ry="3" pointer-events="none" width="202.09823608398438" height="48.8645076751709" transform="matrix(1,0,0,1,-101,-24.4)"></rect><text joint-selector="text" id="v-209" font-size="36px" xml:space="preserve" y="0.8em" fill="#707070" text-anchor="middle" pointer-events="none" font-family="Open Sans" font-weight="normal" transform="matrix(1,0,0,1,0,-14.7)"><tspan dy="0" >7: Response</tspan></text></g><g id="v-208"  label-idx="1" cursor="move" transform="matrix(1,0,0,1,1003.515625,2104.37646484375)" style="cursor: default;"><rect joint-selector="rect" id="v-212" fill="#ffffff" rx="3" ry="3"  width="0" height="0" transform="matrix(1,0,0,1,0,0)" display="none"></rect><text joint-selector="text" id="v-211" fill="#000000" font-size="14" text-anchor="middle" pointer-events="none"></text></g></g><g  display="none"><g  transform="translate(1010, 2065)" id="v-404"><circle  idx="0" r="10"></circle><path  idx="0" d="M16,5.333c-7.732,0-14,4.701-14,10.5c0,1.982,0.741,3.833,2.016,5.414L2,25.667l5.613-1.441c2.339,1.317,5.237,2.107,8.387,2.107c7.732,0,14-4.701,14-10.5C30,10.034,23.732,5.333,16,5.333z" transform="translate(5, -33)"></path><path  idx="0" transform="scale(.8) translate(9.5, -37)" d="M24.778,21.419 19.276,15.917 24.777,10.415 21.949,7.585 16.447,13.087 10.945,7.585 8.117,10.415 13.618,15.917 8.116,21.419 10.946,24.248 16.447,18.746 21.948,24.248z"><title>Remove vertex.</title></path></g></g><g  id="v-217" display="none"><g  id="v-205"><path  end="source" d="M 26 0 L 0 13 L 26 26 z"></path></g><g  id="v-206"><path  end="target" d="M 26 0 L 0 13 L 26 26 z"></path></g></g><g  id="v-216" display="none"><g  id="v-203" transform="translate(1265.0382715982134, 2006.0544861778799) "><g  event="remove"><circle r="11"></circle><path transform="scale(.8) translate(-16, -16)" d="M24.778,21.419 19.276,15.917 24.777,10.415 21.949,7.585 16.447,13.087 10.945,7.585 8.117,10.415 13.618,15.917 8.116,21.419 10.946,24.248 16.447,18.746 21.948,24.248z"></path><title>Remove link.</title></g><g  event="link:options"><circle r="11" transform="translate(25)"></circle><path fill="white" transform="scale(.55) translate(29, -16)" d="M31.229,17.736c0.064-0.571,0.104-1.148,0.104-1.736s-0.04-1.166-0.104-1.737l-4.377-1.557c-0.218-0.716-0.504-1.401-0.851-2.05l1.993-4.192c-0.725-0.91-1.549-1.734-2.458-2.459l-4.193,1.994c-0.647-0.347-1.334-0.632-2.049-0.849l-1.558-4.378C17.165,0.708,16.588,0.667,16,0.667s-1.166,0.041-1.737,0.105L12.707,5.15c-0.716,0.217-1.401,0.502-2.05,0.849L6.464,4.005C5.554,4.73,4.73,5.554,4.005,6.464l1.994,4.192c-0.347,0.648-0.632,1.334-0.849,2.05l-4.378,1.557C0.708,14.834,0.667,15.412,0.667,16s0.041,1.165,0.105,1.736l4.378,1.558c0.217,0.715,0.502,1.401,0.849,2.049l-1.994,4.193c0.725,0.909,1.549,1.733,2.459,2.458l4.192-1.993c0.648,0.347,1.334,0.633,2.05,0.851l1.557,4.377c0.571,0.064,1.148,0.104,1.737,0.104c0.588,0,1.165-0.04,1.736-0.104l1.558-4.377c0.715-0.218,1.399-0.504,2.049-0.851l4.193,1.993c0.909-0.725,1.733-1.549,2.458-2.458l-1.993-4.193c0.347-0.647,0.633-1.334,0.851-2.049L31.229,17.736zM16,20.871c-2.69,0-4.872-2.182-4.872-4.871c0-2.69,2.182-4.872,4.872-4.872c2.689,0,4.871,2.182,4.871,4.872C20.871,18.689,18.689,20.871,16,20.871z"></path><title>Link options.</title></g></g></g></g><g   id="j_18" ><path  stroke="#707070" d="M 562 1795 L 686 1504 C 688.6666666666666 1498 688.6666666666666 1492 686 1486 L 561 1190" id="v-232" stroke-width="2" stroke-dasharray="30 30" fill="none"></path><path  fill="black" stroke="black" d="M 0 0 0 0" transform="matrix(0.39243862699821586,-0.9197781928485559,0.9197781928485559,0.39243862699821586,562,1795)"></path><path  fill="#707070" stroke="#707070" d="M 20 0 L 0 10 L 20 20 z" id="v-234" transform="matrix(0.38877263882197105,0.9213337263464315,-0.9213337263464315,0.38877263882197105,570.5133550158696,1186.112315254566)"></path><path  d="M 562 1795 L 686 1504 C 688.6666666666666 1498 688.6666666666666 1492 686 1486 L 561 1190" id="v-233" fill="none" style="cursor: default;"></path><g ><g id="v-226"  label-idx="0" cursor="move" transform="matrix(1,0,0,1,687.84619140625,1492.50390625)" style="cursor: default;"><rect joint-selector="rect" id="v-229" fill="#ffffff" rx="3" ry="3" pointer-events="none" width="319.3314208984375" height="48.8645076751709" transform="matrix(1,0,0,1,-159.7,-24.4)"></rect><text joint-selector="text" id="v-228" font-size="36px" xml:space="preserve" y="0.8em" fill="#707070" text-anchor="middle" pointer-events="none" font-family="Open Sans" font-weight="normal" transform="matrix(1,0,0,1,0,-14.7)"><tspan dy="0" >8: Counterexample</tspan></text></g><g id="v-227"  label-idx="1" cursor="move" transform="matrix(1,0,0,1,677.84619140625,1533.00390625)" style="cursor: default;"><rect joint-selector="rect" id="v-231" fill="#ffffff" rx="3" ry="3"  width="0" height="0" transform="matrix(1,0,0,1,0,0)" display="none"></rect><text joint-selector="text" id="v-230" fill="#000000" font-size="14" text-anchor="middle" pointer-events="none"></text></g></g><g  display="none"><g  transform="translate(690, 1495)" id="v-531"><circle  idx="0" r="10"></circle><path  idx="0" d="M16,5.333c-7.732,0-14,4.701-14,10.5c0,1.982,0.741,3.833,2.016,5.414L2,25.667l5.613-1.441c2.339,1.317,5.237,2.107,8.387,2.107c7.732,0,14-4.701,14-10.5C30,10.034,23.732,5.333,16,5.333z" transform="translate(5, -33)"></path><path  idx="0" transform="scale(.8) translate(9.5, -37)" d="M24.778,21.419 19.276,15.917 24.777,10.415 21.949,7.585 16.447,13.087 10.945,7.585 8.117,10.415 13.618,15.917 8.116,21.419 10.946,24.248 16.447,18.746 21.948,24.248z"><title>Remove vertex.</title></path></g></g><g  id="v-236" display="none"><g  id="v-224"><path  end="source" d="M 26 0 L 0 13 L 26 26 z"></path></g><g  id="v-225"><path  end="target" d="M 26 0 L 0 13 L 26 26 z"></path></g></g><g  id="v-235" display="none"><g  id="v-221" transform="translate(577.6804289088361, 1758.2015740929733) "><g  event="remove"><circle r="11"></circle><path transform="scale(.8) translate(-16, -16)" d="M24.778,21.419 19.276,15.917 24.777,10.415 21.949,7.585 16.447,13.087 10.945,7.585 8.117,10.415 13.618,15.917 8.116,21.419 10.946,24.248 16.447,18.746 21.948,24.248z"></path><title>Remove link.</title></g><g  event="link:options"><circle r="11" transform="translate(25)"></circle><path fill="white" transform="scale(.55) translate(29, -16)" d="M31.229,17.736c0.064-0.571,0.104-1.148,0.104-1.736s-0.04-1.166-0.104-1.737l-4.377-1.557c-0.218-0.716-0.504-1.401-0.851-2.05l1.993-4.192c-0.725-0.91-1.549-1.734-2.458-2.459l-4.193,1.994c-0.647-0.347-1.334-0.632-2.049-0.849l-1.558-4.378C17.165,0.708,16.588,0.667,16,0.667s-1.166,0.041-1.737,0.105L12.707,5.15c-0.716,0.217-1.401,0.502-2.05,0.849L6.464,4.005C5.554,4.73,4.73,5.554,4.005,6.464l1.994,4.192c-0.347,0.648-0.632,1.334-0.849,2.05l-4.378,1.557C0.708,14.834,0.667,15.412,0.667,16s0.041,1.165,0.105,1.736l4.378,1.558c0.217,0.715,0.502,1.401,0.849,2.049l-1.994,4.193c0.725,0.909,1.549,1.733,2.459,2.458l4.192-1.993c0.648,0.347,1.334,0.633,2.05,0.851l1.557,4.377c0.571,0.064,1.148,0.104,1.737,0.104c0.588,0,1.165-0.04,1.736-0.104l1.558-4.377c0.715-0.218,1.399-0.504,2.049-0.851l4.193,1.993c0.909-0.725,1.733-1.549,2.458-2.458l-1.993-4.193c0.347-0.647,0.633-1.334,0.851-2.049L31.229,17.736zM16,20.871c-2.69,0-4.872-2.182-4.872-4.871c0-2.69,2.182-4.872,4.872-4.872c2.689,0,4.871,2.182,4.871,4.872C20.871,18.689,18.689,20.871,16,20.871z"></path><title>Link options.</title></g></g></g></g><g   id="j_19" ><path  stroke="#707070" d="M 723 1833 L 1121 1634 C 1127 1631.333333333333 1130 1626.6666666666665 1130 1620 L 1130 1380 C 1130 1373.3333333333333 1127 1368.3333333333333 1121 1365 L 723 1157" id="v-251" stroke-width="2" stroke-dasharray="30 30" fill="none"></path><path  fill="black" stroke="black" d="M 0 0 0 0" transform="matrix(0.8949894917339517,-0.4460872220606671,0.4460872220606671,0.8949894917339517,723,1832.8599853515625)"></path><path  fill="#707070" stroke="#707070" d="M 20 0 L 0 10 L 20 20 z" id="v-253" transform="matrix(0.8864310187119587,0.46286072318277244,-0.46286072318277244,0.8864310187119587,727.6286158923643,1148.6157251591776)"></path><path  d="M 723 1833 L 1121 1634 C 1127 1631.333333333333 1130 1626.6666666666665 1130 1620 L 1130 1380 C 1130 1373.3333333333333 1127 1368.3333333333333 1121 1365 L 723 1157" id="v-252" fill="none" style="cursor: default;"></path><g ><g id="v-245"  label-idx="0" cursor="move" transform="matrix(1,0,0,1,1130,1497.5986328125)" style="cursor: default;"><rect joint-selector="rect" id="v-248" fill="#ffffff" rx="3" ry="3" pointer-events="none" width="356.2111511230469" height="92.06451416015625" transform="matrix(1,0,0,1,-178.1,-46)"></rect><text joint-selector="text" id="v-247" font-size="36px" xml:space="preserve" y="0.8em" fill="#707070" text-anchor="middle" pointer-events="none" font-family="Open Sans" font-weight="normal" transform="matrix(1,0,0,1,0,-36.3)"><tspan dy="0" >8: Partial Proofs from</tspan><tspan dy="1.2em" x="0" >Sledgehammer</tspan></text></g><g id="v-246"  label-idx="1" cursor="move" transform="matrix(1,0,0,1,1120,1560.5986328125)" style="cursor: default;"><rect joint-selector="rect" id="v-250" fill="#ffffff" rx="3" ry="3"  width="0" height="0" transform="matrix(1,0,0,1,0,0)" display="none"></rect><text joint-selector="text" id="v-249" fill="#000000" font-size="14" text-anchor="middle" pointer-events="none"></text></g></g><g  display="none"><g  transform="translate(1130, 1630)" id="v-988"><circle  idx="0" r="10"></circle><path  idx="0" d="M16,5.333c-7.732,0-14,4.701-14,10.5c0,1.982,0.741,3.833,2.016,5.414L2,25.667l5.613-1.441c2.339,1.317,5.237,2.107,8.387,2.107c7.732,0,14-4.701,14-10.5C30,10.034,23.732,5.333,16,5.333z" transform="translate(5, -33)"></path><path  idx="0" transform="scale(.8) translate(9.5, -37)" d="M24.778,21.419 19.276,15.917 24.777,10.415 21.949,7.585 16.447,13.087 10.945,7.585 8.117,10.415 13.618,15.917 8.116,21.419 10.946,24.248 16.447,18.746 21.948,24.248z"><title>Remove vertex.</title></path></g><g  transform="translate(1130, 1370)" id="v-989"><circle  idx="1" r="10"></circle><path  idx="1" d="M16,5.333c-7.732,0-14,4.701-14,10.5c0,1.982,0.741,3.833,2.016,5.414L2,25.667l5.613-1.441c2.339,1.317,5.237,2.107,8.387,2.107c7.732,0,14-4.701,14-10.5C30,10.034,23.732,5.333,16,5.333z" transform="translate(5, -33)"></path><path  idx="1" transform="scale(.8) translate(9.5, -37)" d="M24.778,21.419 19.276,15.917 24.777,10.415 21.949,7.585 16.447,13.087 10.945,7.585 8.117,10.415 13.618,15.917 8.116,21.419 10.946,24.248 16.447,18.746 21.948,24.248z"><title>Remove vertex.</title></path></g></g><g  id="v-255" display="none"><g  id="v-243"><path  end="source" d="M 26 0 L 0 13 L 26 26 z"></path></g><g  id="v-244"><path  end="target" d="M 26 0 L 0 13 L 26 26 z"></path></g></g><g  id="v-254" display="none"><g  id="v-240" transform="translate(758.7770876399966, 1815.1114561800018) "><g  event="remove"><circle r="11"></circle><path transform="scale(.8) translate(-16, -16)" d="M24.778,21.419 19.276,15.917 24.777,10.415 21.949,7.585 16.447,13.087 10.945,7.585 8.117,10.415 13.618,15.917 8.116,21.419 10.946,24.248 16.447,18.746 21.948,24.248z"></path><title>Remove link.</title></g><g  event="link:options"><circle r="11" transform="translate(25)"></circle><path fill="white" transform="scale(.55) translate(29, -16)" d="M31.229,17.736c0.064-0.571,0.104-1.148,0.104-1.736s-0.04-1.166-0.104-1.737l-4.377-1.557c-0.218-0.716-0.504-1.401-0.851-2.05l1.993-4.192c-0.725-0.91-1.549-1.734-2.458-2.459l-4.193,1.994c-0.647-0.347-1.334-0.632-2.049-0.849l-1.558-4.378C17.165,0.708,16.588,0.667,16,0.667s-1.166,0.041-1.737,0.105L12.707,5.15c-0.716,0.217-1.401,0.502-2.05,0.849L6.464,4.005C5.554,4.73,4.73,5.554,4.005,6.464l1.994,4.192c-0.347,0.648-0.632,1.334-0.849,2.05l-4.378,1.557C0.708,14.834,0.667,15.412,0.667,16s0.041,1.165,0.105,1.736l4.378,1.558c0.217,0.715,0.502,1.401,0.849,2.049l-1.994,4.193c0.725,0.909,1.549,1.733,2.459,2.458l4.192-1.993c0.648,0.347,1.334,0.633,2.05,0.851l1.557,4.377c0.571,0.064,1.148,0.104,1.737,0.104c0.588,0,1.165-0.04,1.736-0.104l1.558-4.377c0.715-0.218,1.399-0.504,2.049-0.851l4.193,1.993c0.909-0.725,1.733-1.549,2.458-2.458l-1.993-4.193c0.347-0.647,0.633-1.334,0.851-2.049L31.229,17.736zM16,20.871c-2.69,0-4.872-2.182-4.872-4.871c0-2.69,2.182-4.872,4.872-4.872c2.689,0,4.871,2.182,4.871,4.872C20.871,18.689,18.689,20.871,16,20.871z"></path><title>Link options.</title></g></g></g></g><g   id="j_20" ><path  stroke="#707070" d="M 723 1109 L 1545 1362 C 1551.6666666666665 1364 1554.9999999999998 1368.3333333333333 1555 1375 L 1555 1625 C 1554.9999999999998 1631.6666666666665 1551.6666666666665 1636 1545 1638 L 723 1879" id="v-270" stroke-width="2" stroke-dasharray="30 30" fill="none"></path><path  fill="black" stroke="black" d="M 0 0 0 0" transform="matrix(0.9558371186701937,0.293896925081332,-0.293896925081332,0.9558371186701937,723,1109.1800537109375)"></path><path  fill="#707070" stroke="#707070" d="M 20 0 L 0 10 L 20 20 z" id="v-272" transform="matrix(0.9595824563191064,-0.28142762750766,0.28142762750766,0.9595824563191064,720.1857243570448,1869.414130422823)"></path><path  d="M 723 1109 L 1545 1362 C 1551.6666666666665 1364 1554.9999999999998 1368.3333333333333 1555 1375 L 1555 1625 C 1554.9999999999998 1631.6666666666665 1551.6666666666665 1636 1545 1638 L 723 1879" id="v-271" fill="none" style="cursor: default;"></path><g ><g id="v-264"  label-idx="0" cursor="move" transform="matrix(1,0,0,1,1555,1498.2734375)" style="cursor: default;"><rect joint-selector="rect" id="v-267" fill="#ffffff" rx="3" ry="3" pointer-events="none" width="356.0723571777344" height="92.06451416015625" transform="matrix(1,0,0,1,-178,-46)"></rect><text joint-selector="text" id="v-266" font-size="36px" xml:space="preserve" y="0.8em" fill="#707070" text-anchor="middle" pointer-events="none" font-family="Open Sans" font-weight="normal" transform="matrix(1,0,0,1,0,-36.3)"><tspan dy="0" >9: Try Sledgehammer</tspan><tspan dy="1.2em" x="0" >on Partial Proof [1..n]</tspan></text></g><g id="v-265"  label-idx="1" cursor="move" transform="matrix(1,0,0,1,1545,1561.2734375)" style="cursor: default;"><rect joint-selector="rect" id="v-269" fill="#ffffff" rx="3" ry="3"  width="0" height="0" transform="matrix(1,0,0,1,0,0)" display="none"></rect><text joint-selector="text" id="v-268" fill="#000000" font-size="14" text-anchor="middle" pointer-events="none"></text></g></g><g  display="none"><g  transform="translate(1555, 1365)" id="v-1294"><circle  idx="0" r="10"></circle><path  idx="0" d="M16,5.333c-7.732,0-14,4.701-14,10.5c0,1.982,0.741,3.833,2.016,5.414L2,25.667l5.613-1.441c2.339,1.317,5.237,2.107,8.387,2.107c7.732,0,14-4.701,14-10.5C30,10.034,23.732,5.333,16,5.333z" transform="translate(5, -33)"></path><path  idx="0" transform="scale(.8) translate(9.5, -37)" d="M24.778,21.419 19.276,15.917 24.777,10.415 21.949,7.585 16.447,13.087 10.945,7.585 8.117,10.415 13.618,15.917 8.116,21.419 10.946,24.248 16.447,18.746 21.948,24.248z"><title>Remove vertex.</title></path></g><g  transform="translate(1555, 1635)" id="v-1295"><circle  idx="1" r="10"></circle><path  idx="1" d="M16,5.333c-7.732,0-14,4.701-14,10.5c0,1.982,0.741,3.833,2.016,5.414L2,25.667l5.613-1.441c2.339,1.317,5.237,2.107,8.387,2.107c7.732,0,14-4.701,14-10.5C30,10.034,23.732,5.333,16,5.333z" transform="translate(5, -33)"></path><path  idx="1" transform="scale(.8) translate(9.5, -37)" d="M24.778,21.419 19.276,15.917 24.777,10.415 21.949,7.585 16.447,13.087 10.945,7.585 8.117,10.415 13.618,15.917 8.116,21.419 10.946,24.248 16.447,18.746 21.948,24.248z"><title>Remove vertex.</title></path></g></g><g  id="v-274" display="none"><g  id="v-262"><path  end="source" d="M 26 0 L 0 13 L 26 26 z"></path></g><g  id="v-263"><path  end="target" d="M 26 0 L 0 13 L 26 26 z"></path></g></g><g  id="v-273" display="none"><g  id="v-259" transform="translate(761.2301546155902, 1120.7667020897134) "><g  event="remove"><circle r="11"></circle><path transform="scale(.8) translate(-16, -16)" d="M24.778,21.419 19.276,15.917 24.777,10.415 21.949,7.585 16.447,13.087 10.945,7.585 8.117,10.415 13.618,15.917 8.116,21.419 10.946,24.248 16.447,18.746 21.948,24.248z"></path><title>Remove link.</title></g><g  event="link:options"><circle r="11" transform="translate(25)"></circle><path fill="white" transform="scale(.55) translate(29, -16)" d="M31.229,17.736c0.064-0.571,0.104-1.148,0.104-1.736s-0.04-1.166-0.104-1.737l-4.377-1.557c-0.218-0.716-0.504-1.401-0.851-2.05l1.993-4.192c-0.725-0.91-1.549-1.734-2.458-2.459l-4.193,1.994c-0.647-0.347-1.334-0.632-2.049-0.849l-1.558-4.378C17.165,0.708,16.588,0.667,16,0.667s-1.166,0.041-1.737,0.105L12.707,5.15c-0.716,0.217-1.401,0.502-2.05,0.849L6.464,4.005C5.554,4.73,4.73,5.554,4.005,6.464l1.994,4.192c-0.347,0.648-0.632,1.334-0.849,2.05l-4.378,1.557C0.708,14.834,0.667,15.412,0.667,16s0.041,1.165,0.105,1.736l4.378,1.558c0.217,0.715,0.502,1.401,0.849,2.049l-1.994,4.193c0.725,0.909,1.549,1.733,2.459,2.458l4.192-1.993c0.648,0.347,1.334,0.633,2.05,0.851l1.557,4.377c0.571,0.064,1.148,0.104,1.737,0.104c0.588,0,1.165-0.04,1.736-0.104l1.558-4.377c0.715-0.218,1.399-0.504,2.049-0.851l4.193,1.993c0.909-0.725,1.733-1.549,2.458-2.458l-1.993-4.193c0.347-0.647,0.633-1.334,0.851-2.049L31.229,17.736zM16,20.871c-2.69,0-4.872-2.182-4.872-4.871c0-2.69,2.182-4.872,4.872-4.872c2.689,0,4.871,2.182,4.871,4.872C20.871,18.689,18.689,20.871,16,20.871z"></path><title>Link options.</title></g></g></g></g><g   id="j_21" ><path  stroke="#707070" d="M 723 1067 L 1020 1104 C 1026.6666666666665 1104.6666666666665 1033.3333333333333 1104.6666666666665 1040 1104 L 1304 1069" id="v-288" stroke-width="2" stroke-dasharray="30 30" fill="none"></path><path  fill="black" stroke="black" d="M 0 0 0 0" transform="matrix(0.9926182762577358,0.121280491585091,-0.121280491585091,0.9926182762577358,723,1067.489990234375)"></path><path  fill="#707070" stroke="#707070" d="M 20 0 L 0 10 L 20 20 z" id="v-290" transform="matrix(-0.991623189933865,0.129164426934764,-0.129164426934764,-0.991623189933865,1305.2916164030612,1079.2262722003036)"></path><path  d="M 723 1067 L 1020 1104 C 1026.6666666666665 1104.6666666666665 1033.3333333333333 1104.6666666666665 1040 1104 L 1304 1069" id="v-289" fill="none" style="cursor: default;"></path><g ><g id="v-282"  label-idx="0" cursor="move" transform="matrix(1,0,0,1,1013.5723266601562,1103.19921875)" style="cursor: default;"><rect joint-selector="rect" id="v-285" fill="#ffffff" rx="3" ry="3" pointer-events="none" width="381.45318603515625" height="48.8645076751709" transform="matrix(1,0,0,1,-190.7,-24.4)"></rect><text joint-selector="text" id="v-284" font-size="36px" xml:space="preserve" y="0.8em" fill="#707070" text-anchor="middle" pointer-events="none" font-family="Open Sans" font-weight="normal" transform="matrix(1,0,0,1,0,-14.7)"><tspan dy="0" >10: Aggregated Results</tspan></text></g><g id="v-283"  label-idx="1" cursor="move" transform="matrix(1,0,0,1,1003.5723266601562,1143.69921875)" style="cursor: default;"><rect joint-selector="rect" id="v-287" fill="#ffffff" rx="3" ry="3"  width="0" height="0" transform="matrix(1,0,0,1,0,0)" display="none"></rect><text joint-selector="text" id="v-286" fill="#000000" font-size="14" text-anchor="middle" pointer-events="none"></text></g></g><g  display="none"><g  transform="translate(1030, 1105)" id="v-1170"><circle  idx="0" r="10"></circle><path  idx="0" d="M16,5.333c-7.732,0-14,4.701-14,10.5c0,1.982,0.741,3.833,2.016,5.414L2,25.667l5.613-1.441c2.339,1.317,5.237,2.107,8.387,2.107c7.732,0,14-4.701,14-10.5C30,10.034,23.732,5.333,16,5.333z" transform="translate(5, -33)"></path><path  idx="0" transform="scale(.8) translate(9.5, -37)" d="M24.778,21.419 19.276,15.917 24.777,10.415 21.949,7.585 16.447,13.087 10.945,7.585 8.117,10.415 13.618,15.917 8.116,21.419 10.946,24.248 16.447,18.746 21.948,24.248z"><title>Remove vertex.</title></path></g></g><g  id="v-292" display="none"><g  id="v-280"><path  end="source" d="M 26 0 L 0 13 L 26 26 z"></path></g><g  id="v-281"><path  end="target" d="M 26 0 L 0 13 L 26 26 z"></path></g></g><g  id="v-291" display="none"><g  id="v-278" transform="translate(762.6931677683085, 1071.9449400923481) "><g  event="remove"><circle r="11"></circle><path transform="scale(.8) translate(-16, -16)" d="M24.778,21.419 19.276,15.917 24.777,10.415 21.949,7.585 16.447,13.087 10.945,7.585 8.117,10.415 13.618,15.917 8.116,21.419 10.946,24.248 16.447,18.746 21.948,24.248z"></path><title>Remove link.</title></g><g  event="link:options"><circle r="11" transform="translate(25)"></circle><path fill="white" transform="scale(.55) translate(29, -16)" d="M31.229,17.736c0.064-0.571,0.104-1.148,0.104-1.736s-0.04-1.166-0.104-1.737l-4.377-1.557c-0.218-0.716-0.504-1.401-0.851-2.05l1.993-4.192c-0.725-0.91-1.549-1.734-2.458-2.459l-4.193,1.994c-0.647-0.347-1.334-0.632-2.049-0.849l-1.558-4.378C17.165,0.708,16.588,0.667,16,0.667s-1.166,0.041-1.737,0.105L12.707,5.15c-0.716,0.217-1.401,0.502-2.05,0.849L6.464,4.005C5.554,4.73,4.73,5.554,4.005,6.464l1.994,4.192c-0.347,0.648-0.632,1.334-0.849,2.05l-4.378,1.557C0.708,14.834,0.667,15.412,0.667,16s0.041,1.165,0.105,1.736l4.378,1.558c0.217,0.715,0.502,1.401,0.849,2.049l-1.994,4.193c0.725,0.909,1.549,1.733,2.459,2.458l4.192-1.993c0.648,0.347,1.334,0.633,2.05,0.851l1.557,4.377c0.571,0.064,1.148,0.104,1.737,0.104c0.588,0,1.165-0.04,1.736-0.104l1.558-4.377c0.715-0.218,1.399-0.504,2.049-0.851l4.193,1.993c0.909-0.725,1.733-1.549,2.458-2.458l-1.993-4.193c0.347-0.647,0.633-1.334,0.851-2.049L31.229,17.736zM16,20.871c-2.69,0-4.872-2.182-4.872-4.871c0-2.69,2.182-4.872,4.872-4.872c2.689,0,4.871,2.182,4.871,4.872C20.871,18.689,18.689,20.871,16,20.871z"></path><title>Link options.</title></g></g></g></g><g   id="j_22" ><path  stroke="#707070" d="M 1616 890 L 1692 760 C 1695.3333333333333 754 1695.6666666666665 748 1693 742 L 1625 600" id="v-303" stroke-width="2" stroke-dasharray="30 30" fill="none"></path><path  fill="black" stroke="black" d="M 0 0 0 0" transform="matrix(0.5025555745334414,-0.8645449060085674,0.8645449060085674,0.5025555745334414,1616.199951171875,890)"></path><path  fill="#707070" stroke="#707070" d="M 20 0 L 0 10 L 20 20 z" id="v-305" transform="matrix(0.4317112585758728,0.9020118564735365,-0.9020118564735365,0.4317112585758728,1633.7501251196015,595.6829104510684)"></path><path  d="M 1616 890 L 1692 760 C 1695.3333333333333 754 1695.6666666666665 748 1693 742 L 1625 600" id="v-304" fill="none" style="cursor: default;"></path><g ><g id="v-297"  label-idx="0" cursor="move" transform="matrix(1,0,0,1,1694.6302490234375,747.6953125)" style="cursor: default;"><rect joint-selector="rect" id="v-300" fill="#ffffff" rx="3" ry="3" pointer-events="none" width="180.7200164794922" height="48.8645076751709" transform="matrix(1,0,0,1,-90.4,-24.4)"></rect><text joint-selector="text" id="v-299" font-size="36px" xml:space="preserve" y="0.8em" fill="#707070" text-anchor="middle" pointer-events="none" font-family="Open Sans" font-weight="normal" transform="matrix(1,0,0,1,0,-14.7)"><tspan dy="0" >11: Results</tspan></text></g><g id="v-298"  label-idx="1" cursor="move" transform="matrix(1,0,0,1,1684.6302490234375,788.1953125)" style="cursor: default;"><rect joint-selector="rect" id="v-302" fill="#ffffff" rx="3" ry="3"  width="0" height="0" transform="matrix(1,0,0,1,0,0)" display="none"></rect><text joint-selector="text" id="v-301" fill="#000000" font-size="14" text-anchor="middle" pointer-events="none"></text></g></g><g  display="none"><g  transform="translate(1697, 751)" id="v-390"><circle  idx="0" r="10"></circle><path  idx="0" d="M16,5.333c-7.732,0-14,4.701-14,10.5c0,1.982,0.741,3.833,2.016,5.414L2,25.667l5.613-1.441c2.339,1.317,5.237,2.107,8.387,2.107c7.732,0,14-4.701,14-10.5C30,10.034,23.732,5.333,16,5.333z" transform="translate(5, -33)"></path><path  idx="0" transform="scale(.8) translate(9.5, -37)" d="M24.778,21.419 19.276,15.917 24.777,10.415 21.949,7.585 16.447,13.087 10.945,7.585 8.117,10.415 13.618,15.917 8.116,21.419 10.946,24.248 16.447,18.746 21.948,24.248z"><title>Remove vertex.</title></path></g></g><g  id="v-307" display="none"><g  id="v-295"><path  end="source" d="M 26 0 L 0 13 L 26 26 z"></path></g><g  id="v-296"><path  end="target" d="M 26 0 L 0 13 L 26 26 z"></path></g></g><g  id="v-306" display="none"><g  id="v-293" transform="translate(1636.1878634932461, 855.4681282352367) "><g  event="remove"><circle r="11"></circle><path transform="scale(.8) translate(-16, -16)" d="M24.778,21.419 19.276,15.917 24.777,10.415 21.949,7.585 16.447,13.087 10.945,7.585 8.117,10.415 13.618,15.917 8.116,21.419 10.946,24.248 16.447,18.746 21.948,24.248z"></path><title>Remove link.</title></g><g  event="link:options"><circle r="11" transform="translate(25)"></circle><path fill="white" transform="scale(.55) translate(29, -16)" d="M31.229,17.736c0.064-0.571,0.104-1.148,0.104-1.736s-0.04-1.166-0.104-1.737l-4.377-1.557c-0.218-0.716-0.504-1.401-0.851-2.05l1.993-4.192c-0.725-0.91-1.549-1.734-2.458-2.459l-4.193,1.994c-0.647-0.347-1.334-0.632-2.049-0.849l-1.558-4.378C17.165,0.708,16.588,0.667,16,0.667s-1.166,0.041-1.737,0.105L12.707,5.15c-0.716,0.217-1.401,0.502-2.05,0.849L6.464,4.005C5.554,4.73,4.73,5.554,4.005,6.464l1.994,4.192c-0.347,0.648-0.632,1.334-0.849,2.05l-4.378,1.557C0.708,14.834,0.667,15.412,0.667,16s0.041,1.165,0.105,1.736l4.378,1.558c0.217,0.715,0.502,1.401,0.849,2.049l-1.994,4.193c0.725,0.909,1.549,1.733,2.459,2.458l4.192-1.993c0.648,0.347,1.334,0.633,2.05,0.851l1.557,4.377c0.571,0.064,1.148,0.104,1.737,0.104c0.588,0,1.165-0.04,1.736-0.104l1.558-4.377c0.715-0.218,1.399-0.504,2.049-0.851l4.193,1.993c0.909-0.725,1.733-1.549,2.458-2.458l-1.993-4.193c0.347-0.647,0.633-1.334,0.851-2.049L31.229,17.736zM16,20.871c-2.69,0-4.872-2.182-4.872-4.871c0-2.69,2.182-4.872,4.872-4.872c2.689,0,4.871,2.182,4.871,4.872C20.871,18.689,18.689,20.871,16,20.871z"></path><title>Link options.</title></g></g></g></g></g><g ></g><g ></g><g ></g></g></svg>